<mxfile host="app.diagrams.net" agent="Mozilla/5.0 (X11; Linux x86_64) AppleWebKit/537.36 (KHTML, like Gecko) Chrome/132.0.0.0 Safari/537.36" version="26.0.14">
  <diagram name="Page-1" id="2YBvvXClWsGukQMizWep">
    <mxGraphModel dx="353" dy="1212" grid="1" gridSize="10" guides="1" tooltips="1" connect="1" arrows="1" fold="1" page="1" pageScale="1" pageWidth="850" pageHeight="1100" math="0" shadow="0">
      <root>
        <mxCell id="0" />
        <mxCell id="1" parent="0" />
        <mxCell id="2DQe4uAKgCYchEltKK3G-125" value="&lt;span style=&quot;color: rgb(0, 0, 0); font-family: Helvetica; font-size: 14px; font-style: normal; font-variant-ligatures: normal; font-variant-caps: normal; font-weight: 400; letter-spacing: normal; orphans: 2; text-align: center; text-indent: 0px; text-transform: none; widows: 2; word-spacing: 0px; -webkit-text-stroke-width: 0px; white-space: normal; background-color: rgb(251, 251, 251); text-decoration-thickness: initial; text-decoration-style: initial; text-decoration-color: initial; float: none; display: inline !important;&quot;&gt;Alt&lt;/span&gt;" style="html=1;blockSpacing=1;whiteSpace=wrap;shape=mxgraph.sysml.package2;xSize=90;overflow=fill;fontSize=13.5;align=left;spacing=0;rounded=1;absoluteArcSize=1;arcSize=12;strokeWidth=NaN;lucidId=xZpTAPdpukCf;" parent="1" vertex="1">
          <mxGeometry x="1670" y="705" width="290" height="165" as="geometry" />
        </mxCell>
        <mxCell id="2DQe4uAKgCYchEltKK3G-129" value="" style="html=1;jettySize=18;whiteSpace=wrap;fontSize=13;fontFamily=helvetica;strokeColor=#333333;strokeOpacity=100;dashed=1;fixDash=1;dashPattern=16 6;strokeWidth=0.8;rounded=0;startArrow=none;endArrow=none;exitX=0.5;exitY=1;exitPerimeter=0;lucidId=MqcVzrL-7rmi;" parent="1" source="2DQe4uAKgCYchEltKK3G-284" edge="1">
          <mxGeometry width="100" height="100" relative="1" as="geometry">
            <Array as="points" />
            <mxPoint x="1245" y="1910" as="targetPoint" />
          </mxGeometry>
        </mxCell>
        <mxCell id="2DQe4uAKgCYchEltKK3G-131" value="" style="html=1;jettySize=18;whiteSpace=wrap;fontSize=13;fontFamily=helvetica;strokeColor=#333333;strokeOpacity=100;dashed=1;fixDash=1;dashPattern=16 6;strokeWidth=0.8;rounded=1;arcSize=24;edgeStyle=orthogonalEdgeStyle;startArrow=none;endArrow=none;exitX=0.5;exitY=1;exitPerimeter=0;lucidId=MqcVlcxoSIf4;" parent="1" source="2DQe4uAKgCYchEltKK3G-286" edge="1">
          <mxGeometry width="100" height="100" relative="1" as="geometry">
            <Array as="points" />
            <mxPoint x="1520" y="1910" as="targetPoint" />
          </mxGeometry>
        </mxCell>
        <mxCell id="2DQe4uAKgCYchEltKK3G-133" value="" style="html=1;jettySize=18;whiteSpace=wrap;fontSize=13;fontFamily=helvetica;strokeColor=#333333;strokeOpacity=100;dashed=1;fixDash=1;dashPattern=16 6;strokeWidth=0.8;rounded=1;arcSize=24;edgeStyle=orthogonalEdgeStyle;startArrow=none;endArrow=none;exitX=0.5;exitY=1;exitPerimeter=0;lucidId=MqcVdNzbLK6W;" parent="1" source="2DQe4uAKgCYchEltKK3G-288" edge="1">
          <mxGeometry width="100" height="100" relative="1" as="geometry">
            <Array as="points" />
            <mxPoint x="1789" y="1910" as="targetPoint" />
          </mxGeometry>
        </mxCell>
        <mxCell id="2DQe4uAKgCYchEltKK3G-136" value="Authentication&lt;div&gt;Service&amp;nbsp;&lt;/div&gt;" style="html=1;overflow=block;blockSpacing=1;whiteSpace=wrap;fontSize=12.4;fontColor=default;align=center;spacing=0;strokeOpacity=0;fillOpacity=100;rounded=1;absoluteArcSize=1;arcSize=12;fillColor=#6db1ff;strokeWidth=0.8;" parent="1" vertex="1">
          <mxGeometry x="1448" y="431" width="143" height="92" as="geometry" />
        </mxCell>
        <mxCell id="2DQe4uAKgCYchEltKK3G-137" value="Subscription&lt;div&gt;Service&lt;/div&gt;" style="html=1;overflow=block;blockSpacing=1;whiteSpace=wrap;fontSize=12.4;fontColor=default;align=center;spacing=0;strokeOpacity=0;fillOpacity=100;rounded=1;absoluteArcSize=1;arcSize=12;fillColor=#6db1ff;strokeWidth=0.8;" parent="1" vertex="1">
          <mxGeometry x="1718" y="431" width="143" height="92" as="geometry" />
        </mxCell>
        <mxCell id="2DQe4uAKgCYchEltKK3G-138" value="User" style="html=1;overflow=block;blockSpacing=1;shape=umlActor;labelPosition=center;verticalLabelPosition=bottom;verticalAlign=top;whiteSpace=nowrap;fontSize=12.4;align=center;spacing=0;strokeColor=#333333;strokeOpacity=100;fillOpacity=100;rounded=1;absoluteArcSize=1;arcSize=12;fillColor=#ffffff;strokeWidth=0.8;lucidId=MqcVV5ANGu6o;" parent="1" vertex="1">
          <mxGeometry x="976.5" y="455" width="60" height="135" as="geometry" />
        </mxCell>
        <mxCell id="2DQe4uAKgCYchEltKK3G-139" value="" style="html=1;jettySize=18;whiteSpace=wrap;fontSize=13;strokeColor=#333333;strokeOpacity=100;strokeWidth=0.8;rounded=1;arcSize=10;edgeStyle=orthogonalEdgeStyle;startArrow=none;endArrow=block;endFill=1;entryX=-0.012;entryY=0.073;entryPerimeter=0;lucidId=MqcVYArAM2zq;" parent="1" edge="1">
          <mxGeometry width="100" height="100" relative="1" as="geometry">
            <Array as="points" />
            <mxPoint x="1015" y="638" as="sourcePoint" />
            <mxPoint x="1233.6399999999999" y="637.3860000000002" as="targetPoint" />
          </mxGeometry>
        </mxCell>
        <mxCell id="2DQe4uAKgCYchEltKK3G-140" value="Select S&lt;span style=&quot;text-wrap-mode: wrap; background-color: rgb(251, 251, 251);&quot;&gt;ubscription&amp;nbsp;&lt;/span&gt;Plan" style="text;html=1;resizable=0;labelBackgroundColor=default;align=center;verticalAlign=middle;fontSize=12.4;" parent="2DQe4uAKgCYchEltKK3G-139" vertex="1">
          <mxGeometry relative="1" as="geometry">
            <mxPoint x="-3" y="-16" as="offset" />
          </mxGeometry>
        </mxCell>
        <mxCell id="2DQe4uAKgCYchEltKK3G-141" value="Mobile App" style="html=1;overflow=block;blockSpacing=1;whiteSpace=wrap;fontSize=12.4;fontColor=default;align=center;spacing=0;strokeOpacity=0;fillOpacity=100;rounded=1;absoluteArcSize=1;arcSize=12;fillColor=#6db1ff;strokeWidth=0.8;" parent="1" vertex="1">
          <mxGeometry x="1177" y="431" width="143" height="92" as="geometry" />
        </mxCell>
        <mxCell id="2DQe4uAKgCYchEltKK3G-144" value="" style="html=1;jettySize=18;whiteSpace=wrap;fontSize=13;strokeColor=#333333;strokeOpacity=100;strokeWidth=0.8;rounded=1;arcSize=10;edgeStyle=orthogonalEdgeStyle;startArrow=none;endArrow=block;endFill=1;exitX=1.012;exitY=0.099;exitPerimeter=0;lucidId=dApTWxwZsu-N;" parent="1" edge="1">
          <mxGeometry width="100" height="100" relative="1" as="geometry">
            <Array as="points" />
            <mxPoint x="1264.3600000000001" y="660.318" as="sourcePoint" />
            <mxPoint x="1780" y="660" as="targetPoint" />
          </mxGeometry>
        </mxCell>
        <mxCell id="2DQe4uAKgCYchEltKK3G-145" value="Forward" style="text;html=1;resizable=0;labelBackgroundColor=default;align=center;verticalAlign=middle;fontSize=12.4;" parent="2DQe4uAKgCYchEltKK3G-144" vertex="1">
          <mxGeometry relative="1" as="geometry">
            <mxPoint x="-2" y="-10" as="offset" />
          </mxGeometry>
        </mxCell>
        <mxCell id="2DQe4uAKgCYchEltKK3G-160" value="" style="html=1;jettySize=18;whiteSpace=wrap;fontSize=13;strokeColor=#333333;strokeOpacity=100;strokeWidth=0.8;rounded=1;arcSize=10;edgeStyle=orthogonalEdgeStyle;startArrow=none;endArrow=block;endFill=1;entryX=-0.012;entryY=0.411;entryPerimeter=0;lucidId=4-pT5Qhd-O3v;" parent="1" edge="1">
          <mxGeometry width="100" height="100" relative="1" as="geometry">
            <Array as="points" />
            <mxPoint x="1013" y="1195" as="sourcePoint" />
            <mxPoint x="1233.6399999999999" y="1195.5020000000002" as="targetPoint" />
          </mxGeometry>
        </mxCell>
        <mxCell id="2DQe4uAKgCYchEltKK3G-162" value="" style="html=1;jettySize=18;whiteSpace=wrap;fontSize=13;strokeColor=#333333;strokeOpacity=100;strokeWidth=0.8;rounded=1;arcSize=10;edgeStyle=orthogonalEdgeStyle;startArrow=none;endArrow=block;endFill=1;exitX=1.012;exitY=0.439;exitPerimeter=0;entryX=-0.012;entryY=0.409;entryPerimeter=0;lucidId=B_pT7TzZo.AE;" parent="1" edge="1">
          <mxGeometry width="100" height="100" relative="1" as="geometry">
            <Array as="points" />
            <mxPoint x="1264.3600000000001" y="1220.198" as="sourcePoint" />
            <mxPoint x="1503.6399999999999" y="1220.3329999999999" as="targetPoint" />
          </mxGeometry>
        </mxCell>
        <mxCell id="2DQe4uAKgCYchEltKK3G-163" value="Validate Credential" style="text;html=1;resizable=0;labelBackgroundColor=default;align=center;verticalAlign=middle;fontSize=12.4;" parent="2DQe4uAKgCYchEltKK3G-162" vertex="1">
          <mxGeometry relative="1" as="geometry">
            <mxPoint x="-3" y="-10" as="offset" />
          </mxGeometry>
        </mxCell>
        <mxCell id="2DQe4uAKgCYchEltKK3G-184" value="Enter Login Credential" style="text;html=1;resizable=0;labelBackgroundColor=default;align=center;verticalAlign=middle;fontSize=12.4;" parent="1" vertex="1">
          <mxGeometry x="1121.4997152918231" y="1180.0002712884177" as="geometry" />
        </mxCell>
        <mxCell id="2DQe4uAKgCYchEltKK3G-249" value="Alt" style="html=1;blockSpacing=1;whiteSpace=wrap;shape=mxgraph.sysml.package2;xSize=90;overflow=fill;fontSize=13.5;align=left;spacing=0;rounded=1;absoluteArcSize=1;arcSize=12;strokeWidth=NaN;lucidId=-lqTDZGTSmCs;" parent="1" vertex="1">
          <mxGeometry x="900" y="1923" width="933" height="184" as="geometry" />
        </mxCell>
        <mxCell id="2DQe4uAKgCYchEltKK3G-250" value="" style="html=1;jettySize=18;whiteSpace=wrap;fontSize=13;strokeColor=#333333;strokeOpacity=100;strokeWidth=0.8;rounded=1;arcSize=10;edgeStyle=orthogonalEdgeStyle;startArrow=none;endArrow=block;endFill=1;exitX=1.012;exitY=0.821;exitPerimeter=0;entryX=-0.012;entryY=0.796;entryPerimeter=0;lucidId=HlqTTmx3ZjP~;" parent="1" edge="1">
          <mxGeometry width="100" height="100" relative="1" as="geometry">
            <Array as="points" />
            <mxPoint x="1542.8600000000001" y="1895.1770000000001" as="sourcePoint" />
            <mxPoint x="1782.5" y="1895" as="targetPoint" />
          </mxGeometry>
        </mxCell>
        <mxCell id="2DQe4uAKgCYchEltKK3G-251" value="Delete from DB" style="text;html=1;resizable=0;labelBackgroundColor=default;align=center;verticalAlign=middle;fontSize=12.4;" parent="2DQe4uAKgCYchEltKK3G-250" vertex="1">
          <mxGeometry relative="1" as="geometry">
            <mxPoint x="1" y="-15" as="offset" />
          </mxGeometry>
        </mxCell>
        <mxCell id="2DQe4uAKgCYchEltKK3G-252" value="" style="html=1;jettySize=18;whiteSpace=wrap;fontSize=13;strokeOpacity=100;dashed=1;fixDash=1;dashPattern=16 6;strokeWidth=0.8;rounded=1;arcSize=10;edgeStyle=orthogonalEdgeStyle;startArrow=none;endArrow=block;endFill=1;lucidId=snqT7pPORbaU;" parent="1" edge="1">
          <mxGeometry width="100" height="100" relative="1" as="geometry">
            <Array as="points" />
            <mxPoint x="1781.5" y="1946" as="sourcePoint" />
            <mxPoint x="1542.5" y="1946" as="targetPoint" />
          </mxGeometry>
        </mxCell>
        <mxCell id="2DQe4uAKgCYchEltKK3G-253" value="" style="html=1;jettySize=18;whiteSpace=wrap;fontSize=13;strokeOpacity=100;dashed=1;fixDash=1;dashPattern=16 6;strokeWidth=0.8;rounded=1;arcSize=10;edgeStyle=orthogonalEdgeStyle;startArrow=none;endArrow=block;endFill=1;lucidId=YnqT91g6~6WP;" parent="1" edge="1">
          <mxGeometry width="100" height="100" relative="1" as="geometry">
            <Array as="points" />
            <mxPoint x="1511.5" y="1961" as="sourcePoint" />
            <mxPoint x="1268.5" y="1961" as="targetPoint" />
          </mxGeometry>
        </mxCell>
        <UserObject label="&lt;span data-lucid-content=&quot;{&amp;quot;t&amp;quot;:&amp;quot;Return Object&amp;quot;,&amp;quot;m&amp;quot;:[{&amp;quot;s&amp;quot;:0,&amp;quot;n&amp;quot;:&amp;quot;a&amp;quot;,&amp;quot;v&amp;quot;:&amp;quot;center&amp;quot;},{&amp;quot;s&amp;quot;:0,&amp;quot;n&amp;quot;:&amp;quot;s&amp;quot;,&amp;quot;v&amp;quot;:18,&amp;quot;e&amp;quot;:13},{&amp;quot;s&amp;quot;:0,&amp;quot;n&amp;quot;:&amp;quot;fsp&amp;quot;,&amp;quot;v&amp;quot;:&amp;quot;ss_presetShapeStyle1_textStyle&amp;quot;,&amp;quot;e&amp;quot;:13},{&amp;quot;s&amp;quot;:0,&amp;quot;n&amp;quot;:&amp;quot;fsp2&amp;quot;,&amp;quot;v&amp;quot;:&amp;quot;ss_presetShapeStyle1_textStyle&amp;quot;,&amp;quot;e&amp;quot;:13}]}&quot; data-lucid-type=&quot;application/vnd.lucid.text&quot;&gt;&lt;span style=&quot;color: rgb(58, 65, 74); font-size: 13.5px;&quot;&gt;OK&lt;/span&gt;&lt;/span&gt;" link="&lt;span data-lucid-content=&quot;{&amp;quot;t&amp;quot;:&amp;quot;Return Object&amp;quot;,&amp;quot;m&amp;quot;:[{&amp;quot;s&amp;quot;:0,&amp;quot;n&amp;quot;:&amp;quot;a&amp;quot;,&amp;quot;v&amp;quot;:&amp;quot;center&amp;quot;},{&amp;quot;s&amp;quot;:0,&amp;quot;n&amp;quot;:&amp;quot;s&amp;quot;,&amp;quot;v&amp;quot;:18,&amp;quot;e&amp;quot;:13},{&amp;quot;s&amp;quot;:0,&amp;quot;n&amp;quot;:&amp;quot;fsp&amp;quot;,&amp;quot;v&amp;quot;:&amp;quot;ss_presetShapeStyle1_textStyle&amp;quot;,&amp;quot;e&amp;quot;:13},{&amp;quot;s&amp;quot;:0,&amp;quot;n&amp;quot;:&amp;quot;fsp2&amp;quot;,&amp;quot;v&amp;quot;:&amp;quot;ss_presetShapeStyle1_textStyle&amp;quot;,&amp;quot;e&amp;quot;:13}]}&quot; data-lucid-type=&quot;application/vnd.lucid.text&quot;&gt;&lt;span style=&quot;color:#3a414a;font-size:13.5px;&quot;&gt;Return Object&lt;/span&gt;&lt;/span&gt;" id="2DQe4uAKgCYchEltKK3G-254">
          <mxCell style="text;strokeColor=none;fillColor=none;align=left;verticalAlign=middle;spacingLeft=4;spacingRight=4;overflow=hidden;points=[[0,0.5],[1,0.5]];portConstraint=eastwest;rotatable=0;whiteSpace=wrap;html=1;" parent="1" vertex="1">
            <mxGeometry x="1620" y="1920" width="110" height="30" as="geometry" />
          </mxCell>
        </UserObject>
        <mxCell id="2DQe4uAKgCYchEltKK3G-255" value="&lt;span data-lucid-content=&quot;{&amp;quot;t&amp;quot;:&amp;quot;Extract Notes&amp;quot;,&amp;quot;m&amp;quot;:[{&amp;quot;s&amp;quot;:0,&amp;quot;n&amp;quot;:&amp;quot;a&amp;quot;,&amp;quot;v&amp;quot;:&amp;quot;center&amp;quot;},{&amp;quot;s&amp;quot;:0,&amp;quot;n&amp;quot;:&amp;quot;s&amp;quot;,&amp;quot;v&amp;quot;:18,&amp;quot;e&amp;quot;:13},{&amp;quot;s&amp;quot;:0,&amp;quot;n&amp;quot;:&amp;quot;fsp&amp;quot;,&amp;quot;v&amp;quot;:&amp;quot;ss_presetShapeStyle1_textStyle&amp;quot;,&amp;quot;e&amp;quot;:13},{&amp;quot;s&amp;quot;:0,&amp;quot;n&amp;quot;:&amp;quot;fsp2&amp;quot;,&amp;quot;v&amp;quot;:&amp;quot;ss_presetShapeStyle1_textStyle&amp;quot;,&amp;quot;e&amp;quot;:13}]}&quot; data-lucid-type=&quot;application/vnd.lucid.text&quot;&gt;&lt;span style=&quot;color: rgb(58, 65, 74); font-size: 13.5px;&quot;&gt;OK&lt;/span&gt;&lt;/span&gt;" style="text;strokeColor=none;fillColor=none;align=left;verticalAlign=middle;spacingLeft=4;spacingRight=4;overflow=hidden;points=[[0,0.5],[1,0.5]];portConstraint=eastwest;rotatable=0;whiteSpace=wrap;html=1;" parent="1" vertex="1">
          <mxGeometry x="1358.5" y="1930" width="92" height="30" as="geometry" />
        </mxCell>
        <mxCell id="2DQe4uAKgCYchEltKK3G-256" value="" style="html=1;jettySize=18;whiteSpace=wrap;fontSize=13;strokeOpacity=100;dashed=1;fixDash=1;dashPattern=16 6;strokeWidth=0.8;rounded=1;arcSize=10;edgeStyle=orthogonalEdgeStyle;startArrow=none;endArrow=block;endFill=1;lucidId=0hqTsIfL4JAx;" parent="1" edge="1">
          <mxGeometry width="100" height="100" relative="1" as="geometry">
            <Array as="points" />
            <mxPoint x="1242.5" y="1986" as="sourcePoint" />
            <mxPoint x="1021.5" y="1986" as="targetPoint" />
          </mxGeometry>
        </mxCell>
        <mxCell id="2DQe4uAKgCYchEltKK3G-257" value="&lt;span data-lucid-content=&quot;{&amp;quot;t&amp;quot;:&amp;quot;Display Error Msg&amp;quot;,&amp;quot;m&amp;quot;:[{&amp;quot;s&amp;quot;:0,&amp;quot;n&amp;quot;:&amp;quot;a&amp;quot;,&amp;quot;v&amp;quot;:&amp;quot;center&amp;quot;},{&amp;quot;s&amp;quot;:0,&amp;quot;n&amp;quot;:&amp;quot;s&amp;quot;,&amp;quot;v&amp;quot;:18,&amp;quot;e&amp;quot;:17},{&amp;quot;s&amp;quot;:0,&amp;quot;n&amp;quot;:&amp;quot;fsp&amp;quot;,&amp;quot;v&amp;quot;:&amp;quot;ss_presetShapeStyle1_textStyle&amp;quot;,&amp;quot;e&amp;quot;:17},{&amp;quot;s&amp;quot;:0,&amp;quot;n&amp;quot;:&amp;quot;fsp2&amp;quot;,&amp;quot;v&amp;quot;:&amp;quot;ss_presetShapeStyle1_textStyle&amp;quot;,&amp;quot;e&amp;quot;:17}]}&quot; data-lucid-type=&quot;application/vnd.lucid.text&quot;&gt;&lt;span style=&quot;color: rgb(58, 65, 74); font-size: 13.5px;&quot;&gt;Display Success Msg&lt;/span&gt;&lt;/span&gt;" style="text;strokeColor=none;fillColor=none;align=left;verticalAlign=middle;spacingLeft=4;spacingRight=4;overflow=hidden;points=[[0,0.5],[1,0.5]];portConstraint=eastwest;rotatable=0;whiteSpace=wrap;html=1;" parent="1" vertex="1">
          <mxGeometry x="1069.5" y="1960" width="149" height="30" as="geometry" />
        </mxCell>
        <mxCell id="2DQe4uAKgCYchEltKK3G-258" value="" style="endArrow=none;dashed=1;html=1;rounded=0;exitX=0.004;exitY=0.493;exitDx=0;exitDy=0;exitPerimeter=0;" parent="1" edge="1">
          <mxGeometry width="50" height="50" relative="1" as="geometry">
            <mxPoint x="902" y="2000" as="sourcePoint" />
            <mxPoint x="1833" y="2000" as="targetPoint" />
          </mxGeometry>
        </mxCell>
        <mxCell id="2DQe4uAKgCYchEltKK3G-259" value="&lt;span style=&quot;font-size: 10px;&quot;&gt;[SUCCESS]&lt;/span&gt;" style="text;whiteSpace=wrap;html=1;" parent="1" vertex="1">
          <mxGeometry x="923.5" y="1940" width="90" height="40" as="geometry" />
        </mxCell>
        <mxCell id="2DQe4uAKgCYchEltKK3G-260" value="&lt;span style=&quot;font-size: 10px;&quot;&gt;[EXCEPTION]&lt;/span&gt;" style="text;whiteSpace=wrap;html=1;" parent="1" vertex="1">
          <mxGeometry x="923.5" y="2005" width="90" height="40" as="geometry" />
        </mxCell>
        <mxCell id="2DQe4uAKgCYchEltKK3G-261" value="" style="endArrow=classic;html=1;rounded=0;entryX=0;entryY=0.765;entryDx=0;entryDy=0;entryPerimeter=0;" parent="1" edge="1">
          <mxGeometry width="50" height="50" relative="1" as="geometry">
            <mxPoint x="1018.5" y="1838" as="sourcePoint" />
            <mxPoint x="1242.5" y="1837.73" as="targetPoint" />
          </mxGeometry>
        </mxCell>
        <mxCell id="2DQe4uAKgCYchEltKK3G-262" value="&lt;span style=&quot;color: rgb(0, 0, 0); font-family: Helvetica; font-size: 12px; font-style: normal; font-variant-ligatures: normal; font-variant-caps: normal; font-weight: 400; letter-spacing: normal; orphans: 2; text-align: center; text-indent: 0px; text-transform: none; widows: 2; word-spacing: 0px; -webkit-text-stroke-width: 0px; white-space: nowrap; background-color: rgb(255, 255, 255); text-decoration-thickness: initial; text-decoration-style: initial; text-decoration-color: initial; float: none; display: inline !important;&quot;&gt;Discarding notes on Dashboard&lt;/span&gt;" style="text;whiteSpace=wrap;html=1;" parent="1" vertex="1">
          <mxGeometry x="1053" y="1810" width="120" height="40" as="geometry" />
        </mxCell>
        <mxCell id="2DQe4uAKgCYchEltKK3G-263" value="Send Request" style="text;html=1;resizable=0;labelBackgroundColor=default;align=center;verticalAlign=middle;fontSize=12.4;" parent="1" vertex="1">
          <mxGeometry x="1389.9999999733925" y="1850.0000717151381" as="geometry" />
        </mxCell>
        <mxCell id="2DQe4uAKgCYchEltKK3G-264" value="" style="endArrow=classic;html=1;rounded=0;" parent="1" edge="1">
          <mxGeometry width="50" height="50" relative="1" as="geometry">
            <mxPoint x="1260" y="1871" as="sourcePoint" />
            <mxPoint x="1508.5" y="1871" as="targetPoint" />
          </mxGeometry>
        </mxCell>
        <mxCell id="2DQe4uAKgCYchEltKK3G-265" value="" style="html=1;jettySize=18;whiteSpace=wrap;fontSize=13;strokeOpacity=100;dashed=1;fixDash=1;dashPattern=16 6;strokeWidth=0.8;rounded=1;arcSize=10;edgeStyle=orthogonalEdgeStyle;startArrow=none;endArrow=block;endFill=1;lucidId=vhqT8Fl-DFvH;" parent="1" edge="1">
          <mxGeometry width="100" height="100" relative="1" as="geometry">
            <Array as="points" />
            <mxPoint x="1782.5" y="2024" as="sourcePoint" />
            <mxPoint x="1542.5" y="2024" as="targetPoint" />
          </mxGeometry>
        </mxCell>
        <mxCell id="2DQe4uAKgCYchEltKK3G-266" value="" style="html=1;jettySize=18;whiteSpace=wrap;fontSize=13;strokeOpacity=100;dashed=1;fixDash=1;dashPattern=16 6;strokeWidth=0.8;rounded=1;arcSize=10;edgeStyle=orthogonalEdgeStyle;startArrow=none;endArrow=block;endFill=1;lucidId=LhqT8P3UGN1E;" parent="1" edge="1">
          <mxGeometry width="100" height="100" relative="1" as="geometry">
            <Array as="points" />
            <mxPoint x="1509.5" y="2039" as="sourcePoint" />
            <mxPoint x="1270.5" y="2039" as="targetPoint" />
          </mxGeometry>
        </mxCell>
        <mxCell id="2DQe4uAKgCYchEltKK3G-267" value="" style="html=1;jettySize=18;whiteSpace=wrap;fontSize=13;strokeOpacity=100;dashed=1;fixDash=1;dashPattern=16 6;strokeWidth=0.8;rounded=1;arcSize=10;edgeStyle=orthogonalEdgeStyle;startArrow=none;endArrow=block;endFill=1;lucidId=0hqTsIfL4JAx;" parent="1" edge="1">
          <mxGeometry width="100" height="100" relative="1" as="geometry">
            <Array as="points" />
            <mxPoint x="1241.5" y="2046" as="sourcePoint" />
            <mxPoint x="1020.5" y="2046" as="targetPoint" />
          </mxGeometry>
        </mxCell>
        <mxCell id="2DQe4uAKgCYchEltKK3G-268" value="&lt;span data-lucid-content=&quot;{&amp;quot;t&amp;quot;:&amp;quot;Display Error Msg&amp;quot;,&amp;quot;m&amp;quot;:[{&amp;quot;s&amp;quot;:0,&amp;quot;n&amp;quot;:&amp;quot;a&amp;quot;,&amp;quot;v&amp;quot;:&amp;quot;center&amp;quot;},{&amp;quot;s&amp;quot;:0,&amp;quot;n&amp;quot;:&amp;quot;s&amp;quot;,&amp;quot;v&amp;quot;:18,&amp;quot;e&amp;quot;:17},{&amp;quot;s&amp;quot;:0,&amp;quot;n&amp;quot;:&amp;quot;fsp&amp;quot;,&amp;quot;v&amp;quot;:&amp;quot;ss_presetShapeStyle1_textStyle&amp;quot;,&amp;quot;e&amp;quot;:17},{&amp;quot;s&amp;quot;:0,&amp;quot;n&amp;quot;:&amp;quot;fsp2&amp;quot;,&amp;quot;v&amp;quot;:&amp;quot;ss_presetShapeStyle1_textStyle&amp;quot;,&amp;quot;e&amp;quot;:17}]}&quot; data-lucid-type=&quot;application/vnd.lucid.text&quot;&gt;&lt;span style=&quot;color:#3a414a;font-size:13.5px;&quot;&gt;Display Error Msg&lt;/span&gt;&lt;/span&gt;" style="text;strokeColor=none;fillColor=none;align=left;verticalAlign=middle;spacingLeft=4;spacingRight=4;overflow=hidden;points=[[0,0.5],[1,0.5]];portConstraint=eastwest;rotatable=0;whiteSpace=wrap;html=1;" parent="1" vertex="1">
          <mxGeometry x="1068.5" y="2020" width="123" height="30" as="geometry" />
        </mxCell>
        <mxCell id="2DQe4uAKgCYchEltKK3G-269" value="&lt;span data-lucid-content=&quot;{&amp;quot;t&amp;quot;:&amp;quot;Exception&amp;quot;,&amp;quot;m&amp;quot;:[{&amp;quot;s&amp;quot;:0,&amp;quot;n&amp;quot;:&amp;quot;a&amp;quot;,&amp;quot;v&amp;quot;:&amp;quot;center&amp;quot;},{&amp;quot;s&amp;quot;:0,&amp;quot;n&amp;quot;:&amp;quot;s&amp;quot;,&amp;quot;v&amp;quot;:18,&amp;quot;e&amp;quot;:9},{&amp;quot;s&amp;quot;:0,&amp;quot;n&amp;quot;:&amp;quot;fsp&amp;quot;,&amp;quot;v&amp;quot;:&amp;quot;ss_presetShapeStyle1_textStyle&amp;quot;,&amp;quot;e&amp;quot;:9},{&amp;quot;s&amp;quot;:0,&amp;quot;n&amp;quot;:&amp;quot;fsp2&amp;quot;,&amp;quot;v&amp;quot;:&amp;quot;ss_presetShapeStyle1_textStyle&amp;quot;,&amp;quot;e&amp;quot;:9}]}&quot; data-lucid-type=&quot;application/vnd.lucid.text&quot;&gt;&lt;span style=&quot;color:#3a414a;font-size:13.5px;&quot;&gt;Exception&lt;/span&gt;&lt;/span&gt;" style="text;strokeColor=none;fillColor=none;align=left;verticalAlign=middle;spacingLeft=4;spacingRight=4;overflow=hidden;points=[[0,0.5],[1,0.5]];portConstraint=eastwest;rotatable=0;whiteSpace=wrap;html=1;" parent="1" vertex="1">
          <mxGeometry x="1341.5" y="2010" width="80" height="30" as="geometry" />
        </mxCell>
        <mxCell id="2DQe4uAKgCYchEltKK3G-270" value="&lt;span data-lucid-content=&quot;{&amp;quot;t&amp;quot;:&amp;quot;Exception&amp;quot;,&amp;quot;m&amp;quot;:[{&amp;quot;s&amp;quot;:0,&amp;quot;n&amp;quot;:&amp;quot;a&amp;quot;,&amp;quot;v&amp;quot;:&amp;quot;center&amp;quot;},{&amp;quot;s&amp;quot;:0,&amp;quot;n&amp;quot;:&amp;quot;s&amp;quot;,&amp;quot;v&amp;quot;:18,&amp;quot;e&amp;quot;:9},{&amp;quot;s&amp;quot;:0,&amp;quot;n&amp;quot;:&amp;quot;fsp&amp;quot;,&amp;quot;v&amp;quot;:&amp;quot;ss_presetShapeStyle1_textStyle&amp;quot;,&amp;quot;e&amp;quot;:9},{&amp;quot;s&amp;quot;:0,&amp;quot;n&amp;quot;:&amp;quot;fsp2&amp;quot;,&amp;quot;v&amp;quot;:&amp;quot;ss_presetShapeStyle1_textStyle&amp;quot;,&amp;quot;e&amp;quot;:9}]}&quot; data-lucid-type=&quot;application/vnd.lucid.text&quot;&gt;&lt;span style=&quot;color:#3a414a;font-size:13.5px;&quot;&gt;Exception&lt;/span&gt;&lt;/span&gt;" style="text;strokeColor=none;fillColor=none;align=left;verticalAlign=middle;spacingLeft=4;spacingRight=4;overflow=hidden;points=[[0,0.5],[1,0.5]];portConstraint=eastwest;rotatable=0;whiteSpace=wrap;html=1;" parent="1" vertex="1">
          <mxGeometry x="1620" y="2000" width="80" height="30" as="geometry" />
        </mxCell>
        <mxCell id="2DQe4uAKgCYchEltKK3G-283" value="" style="html=1;jettySize=18;whiteSpace=wrap;fontSize=13;strokeColor=#333333;strokeOpacity=100;dashed=1;fixDash=1;dashPattern=16 6;strokeWidth=0.8;rounded=1;arcSize=10;edgeStyle=orthogonalEdgeStyle;startArrow=none;endArrow=none;exitX=0.5;exitY=0.532;exitPerimeter=0;lucidId=MqcVGEdurxjJ;" parent="1" source="2DQe4uAKgCYchEltKK3G-138" target="2DQe4uAKgCYchEltKK3G-273" edge="1">
          <mxGeometry width="100" height="100" relative="1" as="geometry">
            <Array as="points" />
            <mxPoint x="1013" y="1910" as="targetPoint" />
            <mxPoint x="1013" y="527" as="sourcePoint" />
          </mxGeometry>
        </mxCell>
        <mxCell id="2DQe4uAKgCYchEltKK3G-273" value="" style="html=1;overflow=block;blockSpacing=1;whiteSpace=wrap;fontSize=13;spacing=0;rounded=1;absoluteArcSize=1;arcSize=12;strokeWidth=NaN;lucidId=MqcVCeURbGk-;" parent="1" vertex="1">
          <mxGeometry x="1000" y="620" width="13" height="1290" as="geometry" />
        </mxCell>
        <mxCell id="2DQe4uAKgCYchEltKK3G-285" value="" style="html=1;jettySize=18;whiteSpace=wrap;fontSize=13;fontFamily=helvetica;strokeColor=#333333;strokeOpacity=100;dashed=1;fixDash=1;dashPattern=16 6;strokeWidth=0.8;rounded=0;startArrow=none;endArrow=none;exitX=0.5;exitY=1;exitPerimeter=0;lucidId=MqcVzrL-7rmi;" parent="1" source="2DQe4uAKgCYchEltKK3G-141" target="2DQe4uAKgCYchEltKK3G-284" edge="1">
          <mxGeometry width="100" height="100" relative="1" as="geometry">
            <Array as="points" />
            <mxPoint x="1245" y="1910" as="targetPoint" />
            <mxPoint x="1249" y="523" as="sourcePoint" />
          </mxGeometry>
        </mxCell>
        <mxCell id="2DQe4uAKgCYchEltKK3G-284" value="" style="html=1;overflow=block;blockSpacing=1;whiteSpace=wrap;fontSize=13;spacing=0;rounded=1;absoluteArcSize=1;arcSize=12;strokeWidth=NaN;lucidId=MqcVCeURbGk-;" parent="1" vertex="1">
          <mxGeometry x="1242" y="630" width="13" height="1190" as="geometry" />
        </mxCell>
        <mxCell id="2DQe4uAKgCYchEltKK3G-287" value="" style="html=1;jettySize=18;whiteSpace=wrap;fontSize=13;fontFamily=helvetica;strokeColor=#333333;strokeOpacity=100;dashed=1;fixDash=1;dashPattern=16 6;strokeWidth=0.8;rounded=1;arcSize=24;edgeStyle=orthogonalEdgeStyle;startArrow=none;endArrow=none;exitX=0.5;exitY=1;exitPerimeter=0;lucidId=MqcVlcxoSIf4;" parent="1" source="2DQe4uAKgCYchEltKK3G-136" target="2DQe4uAKgCYchEltKK3G-286" edge="1">
          <mxGeometry width="100" height="100" relative="1" as="geometry">
            <Array as="points" />
            <mxPoint x="1520" y="1910" as="targetPoint" />
            <mxPoint x="1520" y="523" as="sourcePoint" />
          </mxGeometry>
        </mxCell>
        <mxCell id="2DQe4uAKgCYchEltKK3G-286" value="" style="html=1;overflow=block;blockSpacing=1;whiteSpace=wrap;fontSize=13;spacing=0;rounded=1;absoluteArcSize=1;arcSize=12;strokeWidth=NaN;lucidId=MqcVCeURbGk-;" parent="1" vertex="1">
          <mxGeometry x="1513" y="680" width="13" height="1120" as="geometry" />
        </mxCell>
        <mxCell id="2DQe4uAKgCYchEltKK3G-289" value="" style="html=1;jettySize=18;whiteSpace=wrap;fontSize=13;fontFamily=helvetica;strokeColor=#333333;strokeOpacity=100;dashed=1;fixDash=1;dashPattern=16 6;strokeWidth=0.8;rounded=1;arcSize=24;edgeStyle=orthogonalEdgeStyle;startArrow=none;endArrow=none;exitX=0.5;exitY=1;exitPerimeter=0;lucidId=MqcVdNzbLK6W;" parent="1" source="2DQe4uAKgCYchEltKK3G-137" target="2DQe4uAKgCYchEltKK3G-288" edge="1">
          <mxGeometry width="100" height="100" relative="1" as="geometry">
            <Array as="points" />
            <mxPoint x="1789" y="1910" as="targetPoint" />
            <mxPoint x="1790" y="523" as="sourcePoint" />
          </mxGeometry>
        </mxCell>
        <mxCell id="2DQe4uAKgCYchEltKK3G-288" value="" style="html=1;overflow=block;blockSpacing=1;whiteSpace=wrap;fontSize=13;spacing=0;rounded=1;absoluteArcSize=1;arcSize=12;strokeWidth=NaN;lucidId=MqcVCeURbGk-;" parent="1" vertex="1">
          <mxGeometry x="1783" y="650" width="13" height="1130" as="geometry" />
        </mxCell>
        <mxCell id="Wgxg1ff1YaHruHP0FJrk-1" value="Cloud DB" style="html=1;overflow=block;blockSpacing=1;whiteSpace=wrap;fontSize=12.4;fontColor=default;align=center;spacing=0;strokeOpacity=0;fillOpacity=100;rounded=1;absoluteArcSize=1;arcSize=12;fillColor=#6db1ff;strokeWidth=0.8;" vertex="1" parent="1">
          <mxGeometry x="1982" y="431" width="143" height="92" as="geometry" />
        </mxCell>
        <mxCell id="Wgxg1ff1YaHruHP0FJrk-2" value="" style="html=1;jettySize=18;whiteSpace=wrap;fontSize=13;fontFamily=helvetica;strokeColor=#333333;strokeOpacity=100;dashed=1;fixDash=1;dashPattern=16 6;strokeWidth=0.8;rounded=1;arcSize=24;edgeStyle=orthogonalEdgeStyle;startArrow=none;endArrow=none;exitX=0.5;exitY=1;exitPerimeter=0;lucidId=MqcVdNzbLK6W;" edge="1" parent="1" source="Wgxg1ff1YaHruHP0FJrk-42">
          <mxGeometry width="100" height="100" relative="1" as="geometry">
            <Array as="points" />
            <mxPoint x="2053" y="1920" as="targetPoint" />
            <mxPoint x="2052.79" y="523" as="sourcePoint" />
          </mxGeometry>
        </mxCell>
        <mxCell id="Wgxg1ff1YaHruHP0FJrk-3" value="" style="endArrow=none;dashed=1;html=1;dashPattern=1 3;strokeWidth=2;rounded=0;exitX=0;exitY=0.453;exitDx=0;exitDy=0;exitPerimeter=0;entryX=0.997;entryY=0.461;entryDx=0;entryDy=0;entryPerimeter=0;" edge="1" parent="1" source="2DQe4uAKgCYchEltKK3G-125" target="2DQe4uAKgCYchEltKK3G-125">
          <mxGeometry width="50" height="50" relative="1" as="geometry">
            <mxPoint x="1740" y="950" as="sourcePoint" />
            <mxPoint x="1790" y="900" as="targetPoint" />
          </mxGeometry>
        </mxCell>
        <mxCell id="Wgxg1ff1YaHruHP0FJrk-4" value="[isMember]" style="text;strokeColor=none;fillColor=none;align=left;verticalAlign=middle;spacingLeft=4;spacingRight=4;overflow=hidden;points=[[0,0.5],[1,0.5]];portConstraint=eastwest;rotatable=0;whiteSpace=wrap;html=1;" vertex="1" parent="1">
          <mxGeometry x="1680" y="730" width="80" height="30" as="geometry" />
        </mxCell>
        <mxCell id="Wgxg1ff1YaHruHP0FJrk-5" value="" style="html=1;points=[[0,0,0,0,5],[0,1,0,0,-5],[1,0,0,0,5],[1,1,0,0,-5]];perimeter=orthogonalPerimeter;outlineConnect=0;targetShapes=umlLifeline;portConstraint=eastwest;newEdgeStyle={&quot;curved&quot;:0,&quot;rounded&quot;:0};" vertex="1" parent="1">
          <mxGeometry x="1791" y="740" width="10" height="40" as="geometry" />
        </mxCell>
        <mxCell id="Wgxg1ff1YaHruHP0FJrk-6" value="Renew Subscription" style="html=1;align=left;spacingLeft=2;endArrow=block;rounded=0;edgeStyle=orthogonalEdgeStyle;curved=0;rounded=0;" edge="1" target="Wgxg1ff1YaHruHP0FJrk-5" parent="1">
          <mxGeometry relative="1" as="geometry">
            <mxPoint x="1796" y="720" as="sourcePoint" />
            <Array as="points">
              <mxPoint x="1826" y="750" />
            </Array>
          </mxGeometry>
        </mxCell>
        <mxCell id="Wgxg1ff1YaHruHP0FJrk-7" value="[Else]" style="text;strokeColor=none;fillColor=none;align=left;verticalAlign=middle;spacingLeft=4;spacingRight=4;overflow=hidden;points=[[0,0.5],[1,0.5]];portConstraint=eastwest;rotatable=0;whiteSpace=wrap;html=1;" vertex="1" parent="1">
          <mxGeometry x="1680" y="800" width="80" height="30" as="geometry" />
        </mxCell>
        <mxCell id="Wgxg1ff1YaHruHP0FJrk-9" value="" style="html=1;points=[[0,0,0,0,5],[0,1,0,0,-5],[1,0,0,0,5],[1,1,0,0,-5]];perimeter=orthogonalPerimeter;outlineConnect=0;targetShapes=umlLifeline;portConstraint=eastwest;newEdgeStyle={&quot;curved&quot;:0,&quot;rounded&quot;:0};" vertex="1" parent="1">
          <mxGeometry x="1791" y="810" width="10" height="40" as="geometry" />
        </mxCell>
        <mxCell id="Wgxg1ff1YaHruHP0FJrk-10" value="New Member" style="html=1;align=left;spacingLeft=2;endArrow=block;rounded=0;edgeStyle=orthogonalEdgeStyle;curved=0;rounded=0;" edge="1" target="Wgxg1ff1YaHruHP0FJrk-9" parent="1">
          <mxGeometry relative="1" as="geometry">
            <mxPoint x="1796" y="790" as="sourcePoint" />
            <Array as="points">
              <mxPoint x="1826" y="820" />
            </Array>
          </mxGeometry>
        </mxCell>
        <mxCell id="Wgxg1ff1YaHruHP0FJrk-11" value="" style="html=1;jettySize=18;whiteSpace=wrap;fontSize=13;strokeColor=#333333;strokeOpacity=100;strokeWidth=0.8;rounded=1;arcSize=10;edgeStyle=orthogonalEdgeStyle;startArrow=none;endArrow=block;endFill=1;lucidId=MqcVYArAM2zq;" edge="1" parent="1">
          <mxGeometry width="100" height="100" relative="1" as="geometry">
            <Array as="points" />
            <mxPoint x="1796" y="900.61" as="sourcePoint" />
            <mxPoint x="2050" y="900" as="targetPoint" />
          </mxGeometry>
        </mxCell>
        <mxCell id="Wgxg1ff1YaHruHP0FJrk-12" value="Record the Plan" style="text;html=1;resizable=0;labelBackgroundColor=default;align=center;verticalAlign=middle;fontSize=12.4;" vertex="1" parent="Wgxg1ff1YaHruHP0FJrk-11">
          <mxGeometry relative="1" as="geometry">
            <mxPoint x="-3" y="-16" as="offset" />
          </mxGeometry>
        </mxCell>
        <mxCell id="Wgxg1ff1YaHruHP0FJrk-14" value="&lt;span style=&quot;color: rgb(0, 0, 0); font-family: Helvetica; font-size: 14px; font-style: normal; font-variant-ligatures: normal; font-variant-caps: normal; font-weight: 400; letter-spacing: normal; orphans: 2; text-align: center; text-indent: 0px; text-transform: none; widows: 2; word-spacing: 0px; -webkit-text-stroke-width: 0px; white-space: normal; background-color: rgb(251, 251, 251); text-decoration-thickness: initial; text-decoration-style: initial; text-decoration-color: initial; float: none; display: inline !important;&quot;&gt;Alt&lt;/span&gt;" style="html=1;blockSpacing=1;whiteSpace=wrap;shape=mxgraph.sysml.package2;xSize=90;overflow=fill;fontSize=13.5;align=left;spacing=0;rounded=1;absoluteArcSize=1;arcSize=12;strokeWidth=NaN;lucidId=xZpTAPdpukCf;" vertex="1" parent="1">
          <mxGeometry x="890" y="1230" width="800" height="230" as="geometry" />
        </mxCell>
        <mxCell id="Wgxg1ff1YaHruHP0FJrk-15" value="" style="endArrow=none;dashed=1;html=1;dashPattern=1 3;strokeWidth=2;rounded=0;exitX=0;exitY=0.453;exitDx=0;exitDy=0;exitPerimeter=0;entryX=0.997;entryY=0.461;entryDx=0;entryDy=0;entryPerimeter=0;" edge="1" parent="1" source="Wgxg1ff1YaHruHP0FJrk-14" target="Wgxg1ff1YaHruHP0FJrk-14">
          <mxGeometry width="50" height="50" relative="1" as="geometry">
            <mxPoint x="1470" y="1475" as="sourcePoint" />
            <mxPoint x="1520" y="1425" as="targetPoint" />
          </mxGeometry>
        </mxCell>
        <mxCell id="Wgxg1ff1YaHruHP0FJrk-16" value="[isValid]" style="text;strokeColor=none;fillColor=none;align=left;verticalAlign=middle;spacingLeft=4;spacingRight=4;overflow=hidden;points=[[0,0.5],[1,0.5]];portConstraint=eastwest;rotatable=0;whiteSpace=wrap;html=1;" vertex="1" parent="1">
          <mxGeometry x="896.5" y="1255" width="80" height="30" as="geometry" />
        </mxCell>
        <mxCell id="Wgxg1ff1YaHruHP0FJrk-17" value="" style="html=1;points=[[0,0,0,0,5],[0,1,0,0,-5],[1,0,0,0,5],[1,1,0,0,-5]];perimeter=orthogonalPerimeter;outlineConnect=0;targetShapes=umlLifeline;portConstraint=eastwest;newEdgeStyle={&quot;curved&quot;:0,&quot;rounded&quot;:0};" vertex="1" parent="1">
          <mxGeometry x="1521" y="1265" width="10" height="40" as="geometry" />
        </mxCell>
        <mxCell id="Wgxg1ff1YaHruHP0FJrk-18" value="Generate JWT Token" style="html=1;align=left;spacingLeft=2;endArrow=block;rounded=0;edgeStyle=orthogonalEdgeStyle;curved=0;rounded=0;" edge="1" parent="1" target="Wgxg1ff1YaHruHP0FJrk-17">
          <mxGeometry relative="1" as="geometry">
            <mxPoint x="1526" y="1245" as="sourcePoint" />
            <Array as="points">
              <mxPoint x="1556" y="1275" />
            </Array>
          </mxGeometry>
        </mxCell>
        <mxCell id="Wgxg1ff1YaHruHP0FJrk-19" value="[Exception]" style="text;strokeColor=none;fillColor=none;align=left;verticalAlign=middle;spacingLeft=4;spacingRight=4;overflow=hidden;points=[[0,0.5],[1,0.5]];portConstraint=eastwest;rotatable=0;whiteSpace=wrap;html=1;" vertex="1" parent="1">
          <mxGeometry x="896.5" y="1360" width="80" height="30" as="geometry" />
        </mxCell>
        <mxCell id="Wgxg1ff1YaHruHP0FJrk-23" value="Store Token in Cache" style="html=1;verticalAlign=bottom;endArrow=open;dashed=1;endSize=8;curved=0;rounded=0;" edge="1" parent="1">
          <mxGeometry relative="1" as="geometry">
            <mxPoint x="1513" y="1310" as="sourcePoint" />
            <mxPoint x="1280" y="1310" as="targetPoint" />
          </mxGeometry>
        </mxCell>
        <mxCell id="Wgxg1ff1YaHruHP0FJrk-24" value="Display Home" style="html=1;verticalAlign=bottom;endArrow=open;dashed=1;endSize=8;curved=0;rounded=0;entryX=0.462;entryY=0.375;entryDx=0;entryDy=0;entryPerimeter=0;" edge="1" parent="1">
          <mxGeometry x="0.0007" relative="1" as="geometry">
            <mxPoint x="1240" y="1320" as="sourcePoint" />
            <mxPoint x="1013.5" y="1320" as="targetPoint" />
            <mxPoint as="offset" />
          </mxGeometry>
        </mxCell>
        <mxCell id="Wgxg1ff1YaHruHP0FJrk-25" value="Exception" style="html=1;verticalAlign=bottom;endArrow=open;dashed=1;endSize=8;curved=0;rounded=0;entryX=0.462;entryY=0.375;entryDx=0;entryDy=0;entryPerimeter=0;" edge="1" parent="1">
          <mxGeometry relative="1" as="geometry">
            <mxPoint x="1508" y="1430" as="sourcePoint" />
            <mxPoint x="1255" y="1430" as="targetPoint" />
          </mxGeometry>
        </mxCell>
        <mxCell id="Wgxg1ff1YaHruHP0FJrk-27" value="Display Error Msg" style="html=1;verticalAlign=bottom;endArrow=open;dashed=1;endSize=8;curved=0;rounded=0;entryX=0.462;entryY=0.375;entryDx=0;entryDy=0;entryPerimeter=0;" edge="1" parent="1">
          <mxGeometry x="0.0007" relative="1" as="geometry">
            <mxPoint x="1239.5" y="1440" as="sourcePoint" />
            <mxPoint x="1013" y="1440" as="targetPoint" />
            <mxPoint as="offset" />
          </mxGeometry>
        </mxCell>
        <mxCell id="Wgxg1ff1YaHruHP0FJrk-28" value="" style="html=1;jettySize=18;whiteSpace=wrap;fontSize=13;strokeColor=#333333;strokeOpacity=100;strokeWidth=0.8;rounded=1;arcSize=10;edgeStyle=orthogonalEdgeStyle;startArrow=none;endArrow=block;endFill=1;entryX=-0.012;entryY=0.073;entryPerimeter=0;lucidId=MqcVYArAM2zq;" edge="1" parent="1">
          <mxGeometry width="100" height="100" relative="1" as="geometry">
            <Array as="points" />
            <mxPoint x="1012.1799999999998" y="1524.99" as="sourcePoint" />
            <mxPoint x="1230.82" y="1524.3760000000002" as="targetPoint" />
          </mxGeometry>
        </mxCell>
        <mxCell id="Wgxg1ff1YaHruHP0FJrk-29" value="Accessing Notes" style="text;html=1;resizable=0;labelBackgroundColor=default;align=center;verticalAlign=middle;fontSize=12.4;" vertex="1" parent="Wgxg1ff1YaHruHP0FJrk-28">
          <mxGeometry relative="1" as="geometry">
            <mxPoint x="-3" y="-16" as="offset" />
          </mxGeometry>
        </mxCell>
        <mxCell id="Wgxg1ff1YaHruHP0FJrk-30" value="" style="html=1;jettySize=18;whiteSpace=wrap;fontSize=13;strokeColor=#333333;strokeOpacity=100;strokeWidth=0.8;rounded=1;arcSize=10;edgeStyle=orthogonalEdgeStyle;startArrow=none;endArrow=block;endFill=1;exitX=1.012;exitY=0.439;exitPerimeter=0;entryX=-0.012;entryY=0.409;entryPerimeter=0;lucidId=B_pT7TzZo.AE;" edge="1" parent="1">
          <mxGeometry width="100" height="100" relative="1" as="geometry">
            <Array as="points" />
            <mxPoint x="1261.8600000000001" y="1549.998" as="sourcePoint" />
            <mxPoint x="1501.1399999999999" y="1550.1329999999998" as="targetPoint" />
          </mxGeometry>
        </mxCell>
        <mxCell id="Wgxg1ff1YaHruHP0FJrk-31" value="Send JWT Token" style="text;html=1;resizable=0;labelBackgroundColor=default;align=center;verticalAlign=middle;fontSize=12.4;" vertex="1" parent="Wgxg1ff1YaHruHP0FJrk-30">
          <mxGeometry relative="1" as="geometry">
            <mxPoint x="-3" y="-10" as="offset" />
          </mxGeometry>
        </mxCell>
        <mxCell id="Wgxg1ff1YaHruHP0FJrk-32" value="&lt;span style=&quot;color: rgb(0, 0, 0); font-family: Helvetica; font-size: 14px; font-style: normal; font-variant-ligatures: normal; font-variant-caps: normal; font-weight: 400; letter-spacing: normal; orphans: 2; text-align: center; text-indent: 0px; text-transform: none; widows: 2; word-spacing: 0px; -webkit-text-stroke-width: 0px; white-space: normal; background-color: rgb(251, 251, 251); text-decoration-thickness: initial; text-decoration-style: initial; text-decoration-color: initial; float: none; display: inline !important;&quot;&gt;Alt&lt;/span&gt;" style="html=1;blockSpacing=1;whiteSpace=wrap;shape=mxgraph.sysml.package2;xSize=90;overflow=fill;fontSize=13.5;align=left;spacing=0;rounded=1;absoluteArcSize=1;arcSize=12;strokeWidth=NaN;lucidId=xZpTAPdpukCf;" vertex="1" parent="1">
          <mxGeometry x="1370" y="1560" width="320" height="90" as="geometry" />
        </mxCell>
        <mxCell id="Wgxg1ff1YaHruHP0FJrk-34" value="&lt;font style=&quot;font-size: 10px;&quot;&gt;[thirdPartAcessNeeded]&lt;/font&gt;" style="text;strokeColor=none;fillColor=none;align=left;verticalAlign=middle;spacingLeft=4;spacingRight=4;overflow=hidden;points=[[0,0.5],[1,0.5]];portConstraint=eastwest;rotatable=0;whiteSpace=wrap;html=1;" vertex="1" parent="1">
          <mxGeometry x="1370" y="1585" width="120" height="25" as="geometry" />
        </mxCell>
        <mxCell id="Wgxg1ff1YaHruHP0FJrk-35" value="" style="html=1;points=[[0,0,0,0,5],[0,1,0,0,-5],[1,0,0,0,5],[1,1,0,0,-5]];perimeter=orthogonalPerimeter;outlineConnect=0;targetShapes=umlLifeline;portConstraint=eastwest;newEdgeStyle={&quot;curved&quot;:0,&quot;rounded&quot;:0};" vertex="1" parent="1">
          <mxGeometry x="1521" y="1595" width="10" height="40" as="geometry" />
        </mxCell>
        <mxCell id="Wgxg1ff1YaHruHP0FJrk-36" value="Use OAuth 2.0" style="html=1;align=left;spacingLeft=2;endArrow=block;rounded=0;edgeStyle=orthogonalEdgeStyle;curved=0;rounded=0;" edge="1" parent="1" target="Wgxg1ff1YaHruHP0FJrk-35">
          <mxGeometry relative="1" as="geometry">
            <mxPoint x="1526" y="1575" as="sourcePoint" />
            <Array as="points">
              <mxPoint x="1556" y="1605" />
            </Array>
          </mxGeometry>
        </mxCell>
        <mxCell id="Wgxg1ff1YaHruHP0FJrk-40" value="" style="html=1;jettySize=18;whiteSpace=wrap;fontSize=13;strokeColor=#333333;strokeOpacity=100;strokeWidth=0.8;rounded=1;arcSize=10;edgeStyle=orthogonalEdgeStyle;startArrow=none;endArrow=block;endFill=1;exitX=1.012;exitY=0.099;exitPerimeter=0;lucidId=dApTWxwZsu-N;" edge="1" parent="1">
          <mxGeometry width="100" height="100" relative="1" as="geometry">
            <Array as="points" />
            <mxPoint x="1531" y="1700.318" as="sourcePoint" />
            <mxPoint x="2046.6399999999996" y="1700" as="targetPoint" />
          </mxGeometry>
        </mxCell>
        <mxCell id="Wgxg1ff1YaHruHP0FJrk-43" value="" style="html=1;jettySize=18;whiteSpace=wrap;fontSize=13;fontFamily=helvetica;strokeColor=#333333;strokeOpacity=100;dashed=1;fixDash=1;dashPattern=16 6;strokeWidth=0.8;rounded=1;arcSize=24;edgeStyle=orthogonalEdgeStyle;startArrow=none;endArrow=none;exitX=0.5;exitY=1;exitPerimeter=0;lucidId=MqcVdNzbLK6W;" edge="1" parent="1" target="Wgxg1ff1YaHruHP0FJrk-42">
          <mxGeometry width="100" height="100" relative="1" as="geometry">
            <Array as="points" />
            <mxPoint x="2053" y="1920" as="targetPoint" />
            <mxPoint x="2052.79" y="523" as="sourcePoint" />
          </mxGeometry>
        </mxCell>
        <mxCell id="Wgxg1ff1YaHruHP0FJrk-42" value="" style="html=1;overflow=block;blockSpacing=1;whiteSpace=wrap;fontSize=13;spacing=0;rounded=1;absoluteArcSize=1;arcSize=12;strokeWidth=NaN;lucidId=MqcVCeURbGk-;" vertex="1" parent="1">
          <mxGeometry x="2050" y="890" width="13" height="1130" as="geometry" />
        </mxCell>
        <mxCell id="Wgxg1ff1YaHruHP0FJrk-63" value="Alt" style="html=1;blockSpacing=1;whiteSpace=wrap;shape=mxgraph.sysml.package2;xSize=90;overflow=fill;fontSize=13.5;align=left;spacing=0;rounded=1;absoluteArcSize=1;arcSize=12;strokeWidth=NaN;lucidId=-lqTDZGTSmCs;" vertex="1" parent="1">
          <mxGeometry x="890" y="933" width="1210" height="184" as="geometry" />
        </mxCell>
        <mxCell id="Wgxg1ff1YaHruHP0FJrk-68" value="" style="html=1;jettySize=18;whiteSpace=wrap;fontSize=13;strokeOpacity=100;dashed=1;fixDash=1;dashPattern=16 6;strokeWidth=0.8;rounded=1;arcSize=10;edgeStyle=orthogonalEdgeStyle;startArrow=none;endArrow=block;endFill=1;lucidId=0hqTsIfL4JAx;" edge="1" parent="1">
          <mxGeometry width="100" height="100" relative="1" as="geometry">
            <Array as="points" />
            <mxPoint x="1232.5" y="996" as="sourcePoint" />
            <mxPoint x="1011.5" y="996" as="targetPoint" />
          </mxGeometry>
        </mxCell>
        <mxCell id="Wgxg1ff1YaHruHP0FJrk-69" value="&lt;span data-lucid-content=&quot;{&amp;quot;t&amp;quot;:&amp;quot;Display Error Msg&amp;quot;,&amp;quot;m&amp;quot;:[{&amp;quot;s&amp;quot;:0,&amp;quot;n&amp;quot;:&amp;quot;a&amp;quot;,&amp;quot;v&amp;quot;:&amp;quot;center&amp;quot;},{&amp;quot;s&amp;quot;:0,&amp;quot;n&amp;quot;:&amp;quot;s&amp;quot;,&amp;quot;v&amp;quot;:18,&amp;quot;e&amp;quot;:17},{&amp;quot;s&amp;quot;:0,&amp;quot;n&amp;quot;:&amp;quot;fsp&amp;quot;,&amp;quot;v&amp;quot;:&amp;quot;ss_presetShapeStyle1_textStyle&amp;quot;,&amp;quot;e&amp;quot;:17},{&amp;quot;s&amp;quot;:0,&amp;quot;n&amp;quot;:&amp;quot;fsp2&amp;quot;,&amp;quot;v&amp;quot;:&amp;quot;ss_presetShapeStyle1_textStyle&amp;quot;,&amp;quot;e&amp;quot;:17}]}&quot; data-lucid-type=&quot;application/vnd.lucid.text&quot;&gt;&lt;span style=&quot;color: rgb(58, 65, 74); font-size: 13.5px;&quot;&gt;Display Success Msg&lt;/span&gt;&lt;/span&gt;" style="text;strokeColor=none;fillColor=none;align=left;verticalAlign=middle;spacingLeft=4;spacingRight=4;overflow=hidden;points=[[0,0.5],[1,0.5]];portConstraint=eastwest;rotatable=0;whiteSpace=wrap;html=1;" vertex="1" parent="1">
          <mxGeometry x="1059.5" y="970" width="149" height="30" as="geometry" />
        </mxCell>
        <mxCell id="Wgxg1ff1YaHruHP0FJrk-70" value="" style="endArrow=none;dashed=1;html=1;rounded=0;exitX=0.004;exitY=0.493;exitDx=0;exitDy=0;exitPerimeter=0;entryX=0.999;entryY=0.424;entryDx=0;entryDy=0;entryPerimeter=0;" edge="1" parent="1" target="Wgxg1ff1YaHruHP0FJrk-63">
          <mxGeometry width="50" height="50" relative="1" as="geometry">
            <mxPoint x="892" y="1010" as="sourcePoint" />
            <mxPoint x="1823" y="1010" as="targetPoint" />
          </mxGeometry>
        </mxCell>
        <mxCell id="Wgxg1ff1YaHruHP0FJrk-71" value="&lt;span style=&quot;font-size: 10px;&quot;&gt;[SUCCESS]&lt;/span&gt;" style="text;whiteSpace=wrap;html=1;" vertex="1" parent="1">
          <mxGeometry x="913.5" y="950" width="90" height="40" as="geometry" />
        </mxCell>
        <mxCell id="Wgxg1ff1YaHruHP0FJrk-72" value="&lt;span style=&quot;font-size: 10px;&quot;&gt;[EXCEPTION]&lt;/span&gt;" style="text;whiteSpace=wrap;html=1;" vertex="1" parent="1">
          <mxGeometry x="913.5" y="1015" width="90" height="40" as="geometry" />
        </mxCell>
        <mxCell id="Wgxg1ff1YaHruHP0FJrk-75" value="" style="html=1;jettySize=18;whiteSpace=wrap;fontSize=13;strokeOpacity=100;dashed=1;fixDash=1;dashPattern=16 6;strokeWidth=0.8;rounded=1;arcSize=10;edgeStyle=orthogonalEdgeStyle;startArrow=none;endArrow=block;endFill=1;lucidId=0hqTsIfL4JAx;" edge="1" parent="1">
          <mxGeometry width="100" height="100" relative="1" as="geometry">
            <Array as="points" />
            <mxPoint x="1231.5" y="1056" as="sourcePoint" />
            <mxPoint x="1010.5" y="1056" as="targetPoint" />
          </mxGeometry>
        </mxCell>
        <mxCell id="Wgxg1ff1YaHruHP0FJrk-76" value="&lt;span data-lucid-content=&quot;{&amp;quot;t&amp;quot;:&amp;quot;Display Error Msg&amp;quot;,&amp;quot;m&amp;quot;:[{&amp;quot;s&amp;quot;:0,&amp;quot;n&amp;quot;:&amp;quot;a&amp;quot;,&amp;quot;v&amp;quot;:&amp;quot;center&amp;quot;},{&amp;quot;s&amp;quot;:0,&amp;quot;n&amp;quot;:&amp;quot;s&amp;quot;,&amp;quot;v&amp;quot;:18,&amp;quot;e&amp;quot;:17},{&amp;quot;s&amp;quot;:0,&amp;quot;n&amp;quot;:&amp;quot;fsp&amp;quot;,&amp;quot;v&amp;quot;:&amp;quot;ss_presetShapeStyle1_textStyle&amp;quot;,&amp;quot;e&amp;quot;:17},{&amp;quot;s&amp;quot;:0,&amp;quot;n&amp;quot;:&amp;quot;fsp2&amp;quot;,&amp;quot;v&amp;quot;:&amp;quot;ss_presetShapeStyle1_textStyle&amp;quot;,&amp;quot;e&amp;quot;:17}]}&quot; data-lucid-type=&quot;application/vnd.lucid.text&quot;&gt;&lt;span style=&quot;color:#3a414a;font-size:13.5px;&quot;&gt;Display Error Msg&lt;/span&gt;&lt;/span&gt;" style="text;strokeColor=none;fillColor=none;align=left;verticalAlign=middle;spacingLeft=4;spacingRight=4;overflow=hidden;points=[[0,0.5],[1,0.5]];portConstraint=eastwest;rotatable=0;whiteSpace=wrap;html=1;" vertex="1" parent="1">
          <mxGeometry x="1058.5" y="1030" width="123" height="30" as="geometry" />
        </mxCell>
        <mxCell id="Wgxg1ff1YaHruHP0FJrk-80" value="OK" style="html=1;verticalAlign=bottom;endArrow=open;dashed=1;endSize=8;curved=0;rounded=0;entryX=-0.05;entryY=0.882;entryDx=0;entryDy=0;entryPerimeter=0;" edge="1" parent="1">
          <mxGeometry relative="1" as="geometry">
            <mxPoint x="2050" y="970" as="sourcePoint" />
            <mxPoint x="1254.9999999999998" y="971.4599999999998" as="targetPoint" />
          </mxGeometry>
        </mxCell>
        <mxCell id="Wgxg1ff1YaHruHP0FJrk-81" value="Exception" style="html=1;verticalAlign=bottom;endArrow=open;dashed=1;endSize=8;curved=0;rounded=0;entryX=-0.05;entryY=0.882;entryDx=0;entryDy=0;entryPerimeter=0;" edge="1" parent="1">
          <mxGeometry relative="1" as="geometry">
            <mxPoint x="2050" y="1055" as="sourcePoint" />
            <mxPoint x="1254.9999999999998" y="1056.4599999999998" as="targetPoint" />
          </mxGeometry>
        </mxCell>
        <mxCell id="Wgxg1ff1YaHruHP0FJrk-82" value="&lt;span style=&quot;color: rgb(0, 0, 0); font-family: Helvetica; font-size: 12px; font-style: normal; font-variant-ligatures: normal; font-variant-caps: normal; font-weight: 400; letter-spacing: normal; orphans: 2; text-align: center; text-indent: 0px; text-transform: none; widows: 2; word-spacing: 0px; -webkit-text-stroke-width: 0px; white-space: nowrap; background-color: rgb(255, 255, 255); text-decoration-thickness: initial; text-decoration-style: initial; text-decoration-color: initial; display: inline !important; float: none;&quot;&gt;Request to Access Data&lt;/span&gt;" style="text;whiteSpace=wrap;html=1;" vertex="1" parent="1">
          <mxGeometry x="1718" y="1670" width="160" height="40" as="geometry" />
        </mxCell>
      </root>
    </mxGraphModel>
  </diagram>
</mxfile>
